<?xml version="1.0" standalone="no"?>
<!DOCTYPE svg PUBLIC "-//W3C//DTD SVG 20010904//EN"
 "http://www.w3.org/TR/2001/REC-SVG-20010904/DTD/svg10.dtd">
<svg version="1.0" xmlns="http://www.w3.org/2000/svg"
 width="820.000000pt" height="772.000000pt" viewBox="0 0 820.000000 772.000000"
 preserveAspectRatio="xMidYMid meet">

<g transform="translate(0.000000,772.000000) scale(0.100000,-0.100000)"
fill="#000000" stroke="none">
<path d="M4064 7301 c-219 -56 -372 -345 -433 -816 -22 -170 -31 -386 -31
-786 l0 -416 -52 -36 c-29 -20 -89 -62 -133 -95 -295 -217 -528 -382 -534
-377 -5 2 -11 18 -14 33 -14 68 -111 159 -195 183 -112 31 -250 -38 -306 -154
-25 -52 -25 -53 -16 -217 5 -91 12 -176 15 -190 5 -21 0 -29 -29 -47 -19 -13
-122 -87 -228 -166 -256 -190 -363 -267 -371 -267 -4 0 -7 7 -7 15 0 23 -35
86 -65 118 -50 52 -104 79 -172 85 -79 6 -140 -15 -201 -72 -99 -91 -112 -180
-70 -500 2 -15 -37 -48 -158 -135 -88 -64 -266 -192 -395 -285 -129 -94 -295
-214 -370 -268 -183 -132 -189 -143 -189 -337 l0 -140 31 -35 c34 -40 86 -58
127 -47 15 5 95 40 177 78 172 81 220 103 480 223 105 48 234 108 288 134 55
25 100 46 102 46 1 0 49 22 106 49 57 27 136 63 174 81 490 227 875 405 940
435 62 29 378 127 570 177 11 3 130 38 264 77 135 39 249 71 253 71 5 0 8
-364 8 -812 l-2 -813 67 -354 c53 -288 63 -357 53 -366 -7 -6 -159 -124 -338
-260 -179 -137 -392 -300 -475 -363 -255 -196 -264 -208 -265 -360 0 -106 15
-150 61 -183 16 -11 43 -23 61 -25 33 -5 227 45 1029 266 162 44 159 44 159
30 0 -29 56 -122 81 -135 71 -37 129 -6 164 88 10 26 22 50 26 53 5 2 55 -9
111 -25 57 -16 171 -48 253 -70 83 -22 291 -78 463 -125 173 -47 323 -86 333
-86 33 0 79 29 99 63 29 47 29 250 0 307 -23 44 -47 65 -330 285 -63 49 -164
128 -225 175 -60 47 -171 133 -245 190 -191 147 -240 189 -235 203 3 7 41 192
85 411 l80 399 0 755 c0 714 1 754 18 749 9 -2 87 -25 172 -50 85 -25 234 -69
330 -97 96 -28 228 -67 293 -86 77 -22 211 -77 380 -156 144 -66 318 -146 387
-178 107 -49 285 -132 640 -297 41 -19 163 -76 270 -125 107 -50 233 -108 280
-130 586 -273 583 -272 639 -231 38 29 50 75 50 203 1 119 -9 177 -38 217 -9
13 -70 62 -136 110 -66 48 -217 157 -335 243 -118 86 -298 216 -400 289 -102
74 -189 138 -194 142 -6 5 -5 24 3 49 6 22 16 104 20 183 11 184 2 218 -77
297 -64 62 -114 84 -197 82 -102 -2 -206 -76 -241 -169 -9 -27 -21 -52 -25
-57 -5 -5 -40 14 -81 46 -40 30 -178 130 -306 223 -128 92 -235 171 -237 176
-3 4 1 47 10 95 8 47 15 137 15 198 0 95 -3 118 -24 161 -60 128 -198 193
-324 151 -85 -29 -150 -99 -189 -203 -8 -22 -16 -17 -173 97 -91 66 -247 180
-347 252 l-181 131 -5 476 c-3 356 -8 515 -21 631 -57 513 -169 796 -352 886
-57 28 -146 39 -200 25z"/>
</g>
</svg>
